<svg xmlns="http://www.w3.org/2000/svg" width="172.629" height="154" viewBox="0 0 172.629 154">
  <g id="box" transform="translate(-9.665 -51.5)">
    <g id="Сгруппировать_162" data-name="Сгруппировать 162" transform="translate(0 51.5)">
      <g id="Сгруппировать_161" data-name="Сгруппировать 161">
        <path id="Контур_53" data-name="Контур 53" d="M198.267,84.262v-.275a3.461,3.461,0,0,0-.275-.55l-.206-.275-.413-.447-.241-.206-.447-.206h-.172L121.788,51.75a3.442,3.442,0,0,0-2.58,0L44.656,81.785h-.172l-.447.206L43.8,82.2l-.413.447-.206.275a3.462,3.462,0,0,0-.275.55v.275a3.426,3.426,0,0,0,0,.86v27.523H31.467c-1.9,0-5.8,1.54-5.8,3.44s3.9,3.44,5.8,3.44h0l11.021.447v11.766H29.105a3.44,3.44,0,1,0,0,6.881H42.488v11.766H32.52c-1.9,0-6.855,1.506-6.855,3.406s4.955,3.44,6.855,3.44l9.969.034V171.13a3.44,3.44,0,0,0,2.133,3.165l74.587,30.963a2.961,2.961,0,0,0,2.339,0L196.134,174.3a3.44,3.44,0,0,0,2.133-3.165V85.122A3.427,3.427,0,0,0,198.267,84.262ZM120.481,58.734l28.28,11.319L84.426,97.266,55.011,85.019Zm-3.544,138.233L49.369,168.825v-12.11H63.646a3.44,3.44,0,1,0,0-6.881H49.369V138.069H82.052a3.44,3.44,0,1,0,0-6.881H49.369V119.456l26.284-.447c1.9,0,6.4-1.54,6.4-3.44s-4.5-2.993-6.4-2.993H49.369V90.145l26.284,10.871,41.284,17.2v78.75Zm3.578-84.564L93.337,101.016,157.74,73.7l28.176,11.353-41.043,17.2Zm3.406,84.564v-78.75l19.369-8.05,48.165-20.092.172,78.75Z" transform="translate(-16 -51.5)" fill="#c80202"/>
      </g>
    </g>
  </g>
</svg>
