<svg xmlns="http://www.w3.org/2000/svg" width="143.45" height="149.5" viewBox="0 0 143.45 149.5">
  <g id="discount" transform="translate(-10.359 0.002)">
    <g id="Сгруппировать_150" data-name="Сгруппировать 150" transform="translate(10.359 -0.002)">
      <g id="Сгруппировать_149" data-name="Сгруппировать 149" transform="translate(0)">
        <path id="Контур_40" data-name="Контур 40" d="M146.893,76.685a4.381,4.381,0,0,1,0-3.873l5.576-11.407a12.978,12.978,0,0,0-5.6-17.234l-11.215-5.951a4.381,4.381,0,0,1-2.276-3.133l-2.193-12.506a12.979,12.979,0,0,0-14.66-10.651l-12.571,1.778a4.381,4.381,0,0,1-3.683-1.2L91.145,3.685a12.977,12.977,0,0,0-18.121,0L63.9,12.513a4.383,4.383,0,0,1-3.683,1.2L47.644,11.932a12.977,12.977,0,0,0-14.66,10.651l-2.193,12.5a4.382,4.382,0,0,1-2.276,3.133L17.3,44.172a12.978,12.978,0,0,0-5.6,17.234l5.576,11.406a4.381,4.381,0,0,1,0,3.873L11.7,88.091a12.978,12.978,0,0,0,5.6,17.234l11.215,5.951a4.381,4.381,0,0,1,2.276,3.133l2.193,12.506A12.97,12.97,0,0,0,45.778,137.7a13.334,13.334,0,0,0,1.867-.132l12.571-1.778a4.38,4.38,0,0,1,3.683,1.2l9.125,8.827a12.978,12.978,0,0,0,18.121,0l9.125-8.827a4.386,4.386,0,0,1,3.683-1.2l12.571,1.778a12.977,12.977,0,0,0,14.66-10.651l2.194-12.5a4.382,4.382,0,0,1,2.276-3.133l11.215-5.951a12.978,12.978,0,0,0,5.6-17.234Zm-4.065,21.024-11.215,5.951a12.949,12.949,0,0,0-6.727,9.26l-2.193,12.505a4.391,4.391,0,0,1-4.96,3.6L105.16,127.25a12.945,12.945,0,0,0-10.886,3.537l-9.125,8.827a4.391,4.391,0,0,1-6.131,0l-9.125-8.827a12.935,12.935,0,0,0-9.03-3.668,13.235,13.235,0,0,0-1.856.131l-12.571,1.778a4.392,4.392,0,0,1-4.96-3.6l-2.194-12.506a12.948,12.948,0,0,0-6.728-9.26L21.34,97.708a4.391,4.391,0,0,1-1.895-5.831l5.576-11.407a12.949,12.949,0,0,0,0-11.445L19.445,57.619a4.391,4.391,0,0,1,1.895-5.831l11.215-5.951a12.949,12.949,0,0,0,6.727-9.26l2.193-12.505a4.391,4.391,0,0,1,4.96-3.6l12.571,1.778A12.949,12.949,0,0,0,69.893,18.71l9.125-8.827a4.391,4.391,0,0,1,6.131,0l9.125,8.827a12.947,12.947,0,0,0,10.886,3.537l12.571-1.778a4.391,4.391,0,0,1,4.96,3.6l2.193,12.506a12.948,12.948,0,0,0,6.728,9.26l11.215,5.951a4.391,4.391,0,0,1,1.895,5.831l-5.576,11.406a12.949,12.949,0,0,0,0,11.445l5.576,11.406A4.391,4.391,0,0,1,142.827,97.708Z" transform="translate(-10.359 0.002)" fill="#c80202"/>
      </g>
    </g>
    <g id="Сгруппировать_152" data-name="Сгруппировать 152" transform="translate(49.32 41.984)">
      <g id="Сгруппировать_151" data-name="Сгруппировать 151">
        <path id="Контур_41" data-name="Контур 41" d="M208.057,145.054a4.311,4.311,0,0,0-6.1,0L145.054,201.96a4.311,4.311,0,1,0,6.1,6.1l56.905-56.905A4.311,4.311,0,0,0,208.057,145.054Z" transform="translate(-143.791 -143.791)" fill="#c80202"/>
      </g>
    </g>
    <g id="Сгруппировать_154" data-name="Сгруппировать 154" transform="translate(49.031 35.947)">
      <g id="Сгруппировать_153" data-name="Сгруппировать 153">
        <path id="Контур_42" data-name="Контур 42" d="M158.61,123.116a15.808,15.808,0,1,0,15.808,15.808A15.826,15.826,0,0,0,158.61,123.116Zm0,22.993a7.185,7.185,0,1,1,7.186-7.186A7.193,7.193,0,0,1,158.61,146.109Z" transform="translate(-142.802 -123.116)" fill="#c80202"/>
      </g>
    </g>
    <g id="Сгруппировать_156" data-name="Сгруппировать 156" transform="translate(83.521 81.934)">
      <g id="Сгруппировать_155" data-name="Сгруппировать 155">
        <path id="Контур_43" data-name="Контур 43" d="M276.73,280.61a15.808,15.808,0,1,0,15.808,15.808A15.826,15.826,0,0,0,276.73,280.61Zm0,22.993a7.185,7.185,0,1,1,7.185-7.185A7.194,7.194,0,0,1,276.73,303.6Z" transform="translate(-260.922 -280.61)" fill="#c80202"/>
      </g>
    </g>
  </g>
</svg>
