<svg xmlns="http://www.w3.org/2000/svg" width="75" height="65.734" viewBox="0 0 75 65.734">
  <g id="gallery" transform="translate(0 -26.576)">
    <g id="Сгруппировать_144" data-name="Сгруппировать 144" transform="translate(0 26.576)">
      <g id="Сгруппировать_143" data-name="Сгруппировать 143" transform="translate(0 0)">
        <path id="Контур_38" data-name="Контур 38" d="M182.718,159.668a8.729,8.729,0,1,0,8.729,8.729A8.729,8.729,0,0,0,182.718,159.668Zm0,13.3a4.572,4.572,0,1,1,0-9.145h0a4.572,4.572,0,1,1,0,9.145Z" transform="translate(-144.754 -137.459)" fill="#c80202"/>
        <path id="Контур_39" data-name="Контур 39" d="M68.492,32.29,18.764,26.644a6.83,6.83,0,0,0-5.373,1.548,6.922,6.922,0,0,0-2.641,4.736L9.839,40.4H7.015C3.008,40.4,0,43.948,0,47.956v37.25a6.922,6.922,0,0,0,6.737,7.1q.138,0,.276,0h50c4.007,0,7.65-3.1,7.65-7.1V83.748a9.107,9.107,0,0,0,3.461-1.457,7.56,7.56,0,0,0,2.641-4.918L74.958,40.4A7.377,7.377,0,0,0,68.492,32.29ZM61.023,85.205c0,2-2,3.461-4.007,3.461h-50a3.279,3.279,0,0,1-3.374-3.181q0-.14,0-.28v-6.74L17.762,68.083a4.372,4.372,0,0,1,5.647.273L33.336,77.1a8.562,8.562,0,0,0,5.374,2,8.288,8.288,0,0,0,4.372-1.184L61.023,67.537V85.205Zm0-21.949L41.169,74.823a4.645,4.645,0,0,1-5.374-.455L25.777,65.533a8.106,8.106,0,0,0-10.109-.364L3.645,73.912V47.956c0-2,1.366-3.916,3.37-3.916h50a4.19,4.19,0,0,1,4.007,3.916ZM71.318,39.9c0,.012,0,.024,0,.036L67.034,76.918a3.1,3.1,0,0,1-1.184,2.459c-.364.364-1.184.547-1.184.729V47.956a7.832,7.832,0,0,0-7.65-7.559H13.482l.82-7.1a4.19,4.19,0,0,1,1.366-2.368A4.189,4.189,0,0,1,18.4,30.2l49.636,5.738A3.643,3.643,0,0,1,71.318,39.9Z" transform="translate(0 -26.576)" fill="#c80202"/>
      </g>
    </g>
  </g>
</svg>
