<svg xmlns="http://www.w3.org/2000/svg" width="75" height="50" viewBox="0 0 75 50">
  <g id="mail" transform="translate(0 -85.333)">
    <g id="Сгруппировать_142" data-name="Сгруппировать 142" transform="translate(0 85.333)">
      <path id="Контур_37" data-name="Контур 37" d="M71.154,85.333H3.846A3.857,3.857,0,0,0,0,89.179v42.308a3.858,3.858,0,0,0,3.846,3.846H71.154A3.858,3.858,0,0,0,75,131.487V89.179A3.858,3.858,0,0,0,71.154,85.333ZM69.71,88.217l-30,22.5a4.021,4.021,0,0,1-4.425,0l-30-22.5ZM53.686,112.2l16.346,20.192c.016.02.036.036.054.054H4.913c.017-.019.037-.034.054-.054L21.313,112.2a1.443,1.443,0,0,0-2.242-1.816l-16.186,20V90.02l30.673,23a6.885,6.885,0,0,0,7.884,0l30.673-23v40.361L55.929,110.387a1.443,1.443,0,0,0-2.242,1.816Z" transform="translate(0 -85.333)" fill="#c80202"/>
    </g>
  </g>
</svg>
