<svg id="paint-palette" xmlns="http://www.w3.org/2000/svg" width="149.5" height="149.5" viewBox="0 0 149.5 149.5">
  <path id="Контур_54" data-name="Контур 54" d="M44.091,122.929a17.47,17.47,0,0,0-5.574-12.8l0-.024c.31-4.288.562-8.809.753-13.473,8.968,1.689,15.323,5.09,18.92,10.14,4.639,6.512,3.4,14.16,2.914,16.349-1.63,7.3,2.691,14.69,10.011,16.1a66.968,66.968,0,0,0,12.647,1.218A66.164,66.164,0,0,0,149.5,74.751c.011-36.973-32.145-67.136-65.726-65.931-18.347.659-34.836,9.7-46.2,19.646q-.218-2.034-.457-3.956A105.5,105.5,0,0,0,34.184,8.7C33.421,6.1,31.632,0,26.571,0s-6.849,6.1-7.613,8.7a105.534,105.534,0,0,0-2.928,15.811,429.333,429.333,0,0,0-2.6,50.239c0,12.355.412,24.581,1.192,35.355l0,.025a17.47,17.47,0,0,0-5.574,12.8v9.052A9.029,9.029,0,0,1,0,140.74v8.76H17.812a26.517,26.517,0,0,0,26.279-26.571Zm40-105.354c28.221-1.013,56.662,24.752,56.653,57.174a57.294,57.294,0,0,1-67.971,55.866c-2.439-.468-3.665-3.12-3.114-5.583.883-3.951,2.228-14.136-4.328-23.341-5.144-7.222-13.8-11.89-25.77-13.9.1-4.29.154-13.362.154-13.526a13.139,13.139,0,1,0-.265-16.843c-.195-6.222-.495-12.19-.892-17.769,9.911-10.471,26.668-21.4,45.534-22.073ZM45.434,64.547a4.38,4.38,0,1,1,3.1,5.364A4.377,4.377,0,0,1,45.434,64.547ZM24.292,29.328a140.227,140.227,0,0,1,2.279-15.045,140.226,140.226,0,0,1,2.279,15.045,445.9,445.9,0,0,1,2.1,45.422q0,2.194-.018,4.38H22.209q-.018-2.185-.018-4.38a445.9,445.9,0,0,1,2.1-45.422ZM22.351,87.887h8.441c-.15,6.185-.406,12.2-.76,17.867a17.535,17.535,0,0,0-6.921,0c-.354-5.667-.61-11.682-.76-17.867ZM17.812,131.98v-9.052a8.76,8.76,0,1,1,17.52,0,17.687,17.687,0,0,1-17.52,17.812H15.4A17.047,17.047,0,0,0,17.812,131.98Z" transform="translate(0 0)" fill="#c80202"/>
  <path id="Контур_55" data-name="Контур 55" d="M348.276,148.593a13.14,13.14,0,1,0-18.582,0,13.132,13.132,0,0,0,18.582,0ZM335.888,136.2a4.38,4.38,0,1,1,0,6.194A4.385,4.385,0,0,1,335.888,136.2Z" transform="translate(-230.699 -89.328)" fill="#c80202"/>
  <path id="Контур_56" data-name="Контур 56" d="M226.478,120.918a13.14,13.14,0,1,0-16.093-9.291A13.155,13.155,0,0,0,226.478,120.918Zm-4.534-16.923a4.38,4.38,0,1,1-3.1,5.364,4.386,4.386,0,0,1,3.1-5.364Z" transform="translate(-148.637 -67.321)" fill="#c80202"/>
  <path id="Контур_57" data-name="Контур 57" d="M272.5,343.442a13.14,13.14,0,1,0,9.291-16.093A13.155,13.155,0,0,0,272.5,343.442Zm11.559-7.632a4.38,4.38,0,1,1-3.1,5.364A4.377,4.377,0,0,1,284.061,335.811Z" transform="translate(-192.615 -231.446)" fill="#c80202"/>
  <path id="Контур_58" data-name="Контур 58" d="M357.355,251.788a13.14,13.14,0,1,0,16.093-9.291,13.155,13.155,0,0,0-16.093,9.291Zm16.922,4.534a4.38,4.38,0,1,1-3.1-5.364A4.377,4.377,0,0,1,374.277,256.322Z" transform="translate(-252.692 -171.369)" fill="#c80202"/>
</svg>
