<svg xmlns="http://www.w3.org/2000/svg" width="149.6" height="149.678" viewBox="0 0 149.6 149.678">
  <g id="quality" transform="translate(-0.425 0.001)">
    <path id="Контур_46" data-name="Контур 46" d="M208.576,193.474l-22.489,21.241-10.793-11.1a3.11,3.11,0,1,0-4.461,4.335l12.945,13.289a3.168,3.168,0,0,0,4.4.093L212.913,198a3.108,3.108,0,0,0,.124-4.4,3.183,3.183,0,0,0-4.461-.124Zm0,0" transform="translate(-116.649 -132.539)" fill="#c80202"/>
    <path id="Контур_47" data-name="Контур 47" d="M137.476,90.551a46.6,46.6,0,1,0,46.6,46.6A46.646,46.646,0,0,0,137.476,90.551Zm0,86.965a40.363,40.363,0,1,1,40.364-40.364A40.41,40.41,0,0,1,137.476,177.516Zm0,0" transform="translate(-62.236 -62.306)" fill="#c80202"/>
    <path id="Контур_48" data-name="Контур 48" d="M139.372,57.69l1.03-18.5a3.112,3.112,0,0,0-1.716-2.963L122.216,27.9l-8.328-16.47a3.165,3.165,0,0,0-2.963-1.716l-18.529,1L76.955.513a3.118,3.118,0,0,0-3.431,0l-15.44,10.2-18.5-1.03A3.107,3.107,0,0,0,36.624,11.4L28.3,27.87,11.826,36.2a3.161,3.161,0,0,0-1.716,2.963l1.028,18.5L.939,73.1a3.118,3.118,0,0,0,0,3.431L11.109,92l-1.03,18.5a3.11,3.11,0,0,0,1.716,2.963l16.47,8.328,8.328,16.47a3.161,3.161,0,0,0,2.963,1.716l18.5-1.03,15.44,10.2a3.037,3.037,0,0,0,3.431,0l15.44-10.2,18.5,1.03a3.113,3.113,0,0,0,2.963-1.716l8.328-16.47,16.47-8.328a3.164,3.164,0,0,0,1.716-2.963L139.31,92l10.2-15.44a3.118,3.118,0,0,0,0-3.431Zm-5.8,31.754a2.929,2.929,0,0,0-.5,1.9l.966,17.5-15.565,7.86a3.078,3.078,0,0,0-1.372,1.373l-7.862,15.565-17.5-.966a3.408,3.408,0,0,0-1.9.5l-14.6,9.639-14.6-9.639a3.088,3.088,0,0,0-1.716-.53h-.156l-17.5.967-7.86-15.566a3.072,3.072,0,0,0-1.373-1.372l-15.6-7.83.967-17.5a3.409,3.409,0,0,0-.5-1.9l-9.638-14.6,9.638-14.6a2.919,2.919,0,0,0,.5-1.9l-.967-17.5,15.566-7.86a3.075,3.075,0,0,0,1.372-1.372l7.86-15.566,17.5.967a3.424,3.424,0,0,0,1.9-.5l14.6-9.638,14.6,9.638a2.925,2.925,0,0,0,1.9.5l17.5-.967L117.1,31.613a3.075,3.075,0,0,0,1.372,1.372l15.565,7.86-.966,17.5a3.416,3.416,0,0,0,.5,1.9l9.639,14.6Zm0,0" fill="#c80202"/>
  </g>
</svg>
